<svg fill="#000000" height="800px" width="800px" version="1.1" id="Layer_1" xmlns="http://www.w3.org/2000/svg" xmlns:xlink="http://www.w3.org/1999/xlink" 
	 viewBox="0 0 512 512" xml:space="preserve">
<g>
	<g>
		<path d="M264.699,226.358h-17.397c-11.547,0-20.943,9.395-20.943,20.943v168.302c0,11.549,9.395,20.943,20.943,20.943H264.7
			c11.547,0,20.943-9.395,20.943-20.943V247.301C285.642,235.753,276.247,226.358,264.699,226.358z M269.475,415.604h-0.001
			c0,2.632-2.142,4.775-4.775,4.775h-17.397c-2.632,0-4.775-2.142-4.775-4.775V247.301c0-2.632,2.142-4.775,4.775-4.775H264.7
			c2.632,0,4.775,2.142,4.775,4.775V415.604z"/>
	</g>
</g>
<g>
	<g>
		<path d="M383.268,226.358H365.87c-11.549,0-20.943,9.395-20.943,20.943v168.302c0,11.549,9.395,20.943,20.943,20.943h17.398
			c11.548,0,20.943-9.395,20.943-20.943V247.301C404.212,235.753,394.817,226.358,383.268,226.358z M388.042,415.604
			c0,2.632-2.142,4.775-4.775,4.775H365.87c-2.632,0-4.775-2.142-4.775-4.775V247.301c0-2.632,2.142-4.775,4.775-4.775h17.398
			c2.632,0,4.774,2.142,4.774,4.775V415.604z"/>
	</g>
</g>
<g>
	<g>
		<path d="M146.13,226.358h-17.397c-11.547,0-20.943,9.395-20.943,20.943v168.302c0,11.549,9.395,20.943,20.943,20.943h17.398
			c11.547,0,20.943-9.395,20.943-20.943V247.301C167.074,235.753,157.679,226.358,146.13,226.358z M150.906,415.604h-0.001
			c0,2.632-2.142,4.775-4.775,4.775h-17.397c-2.632,0-4.775-2.142-4.775-4.775V247.301c0-2.632,2.142-4.775,4.775-4.775h17.398
			c2.632,0,4.775,2.142,4.775,4.775V415.604z"/>
	</g>
</g>
<g>
	<g>
		<path d="M489.664,129.347H350.316v-13.474c0-52.006-42.31-94.316-94.316-94.316s-94.316,42.31-94.316,94.316v13.474H22.336
			C10.02,129.347,0,139.368,0,151.684v16.179c0,17.395,14.153,31.548,31.549,31.548h0.788v228.771
			c0,34.331,27.929,62.26,62.259,62.26h322.808c34.33,0,62.259-27.929,62.259-62.26V199.411h0.788
			c17.396,0,31.549-14.153,31.549-31.549v-16.179C512,139.368,501.98,129.347,489.664,129.347z M177.853,115.874
			c0-43.091,35.056-78.147,78.147-78.147s78.147,35.056,78.147,78.147v13.474H307.2v-13.474c0-28.231-22.969-51.2-51.2-51.2
			s-51.2,22.969-51.2,51.2v13.474h-26.947V115.874z M291.032,115.874v13.474h-70.063v-13.474c0-19.317,15.716-35.032,35.032-35.032
			S291.032,96.557,291.032,115.874z M495.832,167.862c0,8.494-6.886,15.38-15.38,15.38h-99.527c-4.465,0-8.084,3.62-8.084,8.084
			c0,4.465,3.62,8.084,8.084,8.084h82.571v228.771c0,25.456-20.636,46.092-46.092,46.092H94.596
			c-25.456,0-46.091-20.636-46.091-46.091V199.411H345.28c4.465,0,8.084-3.62,8.084-8.084c0-4.465-3.62-8.084-8.084-8.084H31.549
			c-8.495,0-15.38-6.887-15.38-15.38v-16.178c0-3.406,2.762-6.168,6.168-6.168h467.328c3.406,0,6.168,2.762,6.168,6.168V167.862z"/>
	</g>
</g>
</svg>